<svg xmlns="http://www.w3.org/2000/svg" xmlns:xlink="http://www.w3.org/1999/xlink" viewBox="0 0 90.72 90.72">
  <defs>
    <style>.cls-1{fill:#042360;}.cls-2{fill:url(#radial-gradient);}.cls-3{fill:url(#radial-gradient-2);}.cls-4{fill:url(#radial-gradient-3);}.cls-5{fill:url(#radial-gradient-4);}.cls-6{fill:url(#radial-gradient-5);}.cls-7{fill:url(#radial-gradient-6);}.cls-8{fill:url(#radial-gradient-7);}.cls-9{fill:url(#linear-gradient);}.cls-10{fill:url(#radial-gradient-8);}</style>
    <radialGradient id="radial-gradient" cx="45.8" cy="-54.28" r="39.1" gradientTransform="translate(0 99.98)" gradientUnits="userSpaceOnUse">
      <stop offset="0" stop-color="#f0f0f0"/>
      <stop offset="0.42" stop-color="#f0f0f0"/>
      <stop offset="0.83" stop-color="#979797"/>
      <stop offset="1" stop-color="#7fdbff"/>
      </radialGradient>
      <radialGradient id="radial-gradient-2" cx="65.18" cy="-30.14" r="30.73" gradientTransform="translate(0 99.98)" gradientUnits="userSpaceOnUse">
        <stop offset="0" stop-color="#155fff"/>
        <stop offset="0.12" stop-color="#1357eb"/>
        <stop offset="0.35" stop-color="#0f43be"/>
        <stop offset="0.67" stop-color="#082277"/>
        <stop offset="0.98" stop-color="#01002a"/>
      </radialGradient>
      <radialGradient id="radial-gradient-3" cx="36.42" cy="-61.65" r="18.66" gradientTransform="translate(0 99.98)" gradientUnits="userSpaceOnUse">
        <stop offset="0" stop-color="#3fb4ff"/>
        <stop offset="0.6" stop-color="#155fff"/>
        <stop offset="0.98" stop-color="#015"/>
      </radialGradient>
      <radialGradient id="radial-gradient-4" cx="26.27" cy="-778.63" r="22.31" gradientTransform="matrix(1, 0, 0, -1, 0, 92.01)" xlink:href="#radial-gradient-2"/>
      <radialGradient id="radial-gradient-5" cx="42.59" cy="-747.81" r="26.49" gradientTransform="matrix(1, 0, 0, -1, 0, 92.01)" xlink:href="#radial-gradient-3"/>
      <radialGradient id="radial-gradient-6" cx="54.02" cy="-747.16" r="20.56" gradientTransform="matrix(1, 0, 0, -1, 0, 92.01)" xlink:href="#radial-gradient-3"/>
      <radialGradient id="radial-gradient-7" cx="47.89" cy="-763.54" r="28.97" gradientTransform="matrix(1, 0, 0, -1, 0, 92.01)" xlink:href="#radial-gradient-3"/>
      
      <linearGradient id="linear-gradient" x1="18.14" y1="-40.19" x2="88.88" y2="-40.19" gradientTransform="translate(0 99.98)" gradientUnits="userSpaceOnUse">
        <stop offset="0" stop-color="#92fff5"/>
        <stop offset="0.6" stop-color="#155fff"/>
        <stop offset="0.98" stop-color="#015"/>
      </linearGradient>
      <radialGradient id="radial-gradient-8" cx="37.76" cy="-68.93" r="32.34" gradientTransform="translate(0 99.98)" xlink:href="#linear-gradient"/>
    </defs>
    <title>Asset 1</title>
    <g id="Layer_2" data-name="Layer 2">
    <g id="Layer_1-2" data-name="Layer 1">
    <g id="abbc">
    <path class="cls-2" d="M45.9,84.45a42,42,0,0,1-5.38-.37A39.65,39.65,0,0,1,6.64,39.84,38.92,38.92,0,0,1,50.22,6.23h.37A39.63,39.63,0,0,1,84.47,50.5,38.9,38.9,0,0,1,45.9,84.45Z"/><polygon class="cls-3" points="80.88 28.53 62.19 64.87 47.08 64.87 47.32 67.88 64.75 67.88 86.35 25.9 80.88 28.53"/>
    <polygon class="cls-4" points="62.08 39.19 59.87 40.01 37.02 40.01 35.71 39.19 62.08 39.19"/>
    <polygon class="cls-5" points="44.19 22.71 26.75 22.71 4.94 65.1 10.37 62.46 29.26 25.73 44.37 25.73 44.19 22.71"/>
    <path class="cls-6" d="M86.35,25.9c21.57,45.22-35.09,85.4-71,53l14.1-27.45H55.8L47.33,67.88H64.75Z"/>
    <polygon class="cls-7" points="29.42 51.4 31.58 50.59 54.42 50.59 55.8 51.4 29.42 51.4"/>
    <path class="cls-8" d="M76.09,12l-14,27.15H35.71l8.47-16.45H26.75L4.94,65.1C-17.19,19.75,40.11-21,76.09,12Z"/>
    <path class="cls-9" d="M45,88.39a41.31,41.31,0,0,1-26.86-10L30.79,53.65H52.15L43.63,70.13H66.1L86.15,31.19c4.59,12.53,3.38,25.25-3.57,36.26A45.54,45.54,0,0,1,45,88.39Z"/><path class="cls-10" d="M5.12,59.85C.36,47.34,1.49,34.51,8.42,23.4c8-12.83,22.84-21.14,37.71-21.14A41.16,41.16,0,0,1,73.29,12.57L60.71,36.91H39.38l8.48-16.44H25.4Z"/>
    </g>
    </g>
    </g>
</svg>